# xmcd
#
# Track frame offsets: 
#        150
#        14390
#        27617
#        41020
#        54340
#        67337
#        80522
#        93282
#        106100
#        118960
#        130975
#        144422
#        156985
#        169772
#        182645
#        196387
#        208665
#        221715
#        234265
#        247062
#        260942
#        273382
#        285770
#        300132
#
# Disc length: 4178 seconds
#
# Revision: 1
# Processed by: cddbd v1.5.2PL0 Copyright (c) Steve Scherf et al.
# Submitted via: ExactAudioCopy v1.0b3
#
DISCID=61105018
DTITLE=Blind Boy Fuller - Complete Recorded Works in Chronological Ord
DTITLE=er - Volume 2 (29 April to 12 July 1937)
DYEAR=1992
DGENRE=Blues
TTITLE0=Cat Man Blues (take 2)
TTITLE1=When Your Gal Packs Up and Leaves
TTITLE2=Mama Let Me Lay It On You
TTITLE3=If You Don't Give Me What I Want
TTITLE4=Boots and Shoes
TTITLE5=Trucking My Blues Away No. 2 (take 1)
TTITLE6=Trucking My Blues Away No. 2 (take 2)
TTITLE7=Sweet Honey Hole
TTITLE8=Untrue Blues
TTITLE9=Tom Cat Blues
TTITLE10=My Baby Don't Mean Me No Good
TTITLE11=Been Your Dog
TTITLE12=My Best Gal Gonna Leave Me
TTITLE13=Wires All Down
TTITLE14=Let Me Squeeze Your Lemon
TTITLE15=Death Alley
TTITLE16=Mamie (take 1)
TTITLE17=Mamie (take 2)
TTITLE18=New Oh Red!
TTITLE19=If You See My Pigmeat
TTITLE20=Stingy Mama
TTITLE21=Why Don't My Baby Write to Me?
TTITLE22=Some Day You're Gonna Be Sorry
TTITLE23=You Never Can Tell
EXTD=
EXTT0=
EXTT1=
EXTT2=
EXTT3=
EXTT4=
EXTT5=
EXTT6=
EXTT7=
EXTT8=
EXTT9=
EXTT10=
EXTT11=
EXTT12=
EXTT13=
EXTT14=
EXTT15=
EXTT16=
EXTT17=
EXTT18=
EXTT19=
EXTT20=
EXTT21=
EXTT22=
EXTT23=
PLAYORDER=
